PathFileType	4	(X/Y/Z)	C:/Users/opensim2020/Desktop/walking_exp_matlab/subject02_walking11_straight_03.trc																																																																																																																												
DataRate	CameraRate	NumFrames	NumMarkers	Units	OrigDataRate	OrigDataStartFrame	OrigNumFrames																																																																																																																								
100	100	4	42	mm	100	2598	250																																																																																																																								
Frame#	Time	LFHD			RFHD			LBHD			RBHD			C7			T10			CLAV			STRN			RBAK			LSHO			LUPA			LELB			LFRM			LWRA			LWRB			LFIN			RSHO			RUPA			RELB			RFRM			RWRA			RWRB			RFIN			LASI			RASI			LPSI			RPSI			LTHI			LKNE			LTIB			LANK			LHEE			LTOE			RTHI			RKNE			RTIB			RANK			RHEE			RTOE			*39			*40			*41		
		X1	Y1	Z1	X2	Y2	Z2	X3	Y3	Z3	X4	Y4	Z4	X5	Y5	Z5	X6	Y6	Z6	X7	Y7	Z7	X8	Y8	Z8	X9	Y9	Z9	X10	Y10	Z10	X11	Y11	Z11	X12	Y12	Z12	X13	Y13	Z13	X14	Y14	Z14	X15	Y15	Z15	X16	Y16	Z16	X17	Y17	Z17	X18	Y18	Z18	X19	Y19	Z19	X20	Y20	Z20	X21	Y21	Z21	X22	Y22	Z22	X23	Y23	Z23	X24	Y24	Z24	X25	Y25	Z25	X26	Y26	Z26	X27	Y27	Z27	X28	Y28	Z28	X29	Y29	Z29	X30	Y30	Z30	X31	Y31	Z31	X32	Y32	Z32	X33	Y33	Z33	X34	Y34	Z34	X35	Y35	Z35	X36	Y36	Z36	X37	Y37	Z37	X38	Y38	Z38	X39	Y39	Z39	X40	Y40	Z40	X41	Y41	Z41	X42	Y42	Z42
																																																																																																																															
219	2.18	787.40839	1743.01831	1385.42297	789.06689	1729.20593	1528.77344	672.27399	1646.05078	1378.69092	661.52905	1628.50623	1520.71814	631.41821	1516.9823	1461.46936	585.56146	1238.62915	1468.77271	771.84973	1450.63489	1440.41357	830.08105	1281.22253	1451.33167	580.79352	1343.91968	1531.50061	689.30615	1488.33569	1275.84351	658.88287	1289.38	1196.75208	639.99323	1151.48877	1188.34729	629.05853	1023.07526	1166.86194	672.88751	888.83789	1175.32495	621.16925	899.68732	1154.42358	629.69922	833.8313	1144.38159	727.64514	1487.26172	1641.45203	727.45288	1291.17676	1723.68457	765.07281	1148.19739	1736.37219	818.72534	1040.06592	1749.23926	890.17712	926.89154	1720.44531	849.12817	913.55908	1758.0155	898.80005	860.0343	1753.95605	837.18134	1001.90143	1322.53589	834.06976	967.2583	1575.41541	623.69501	1022.81213	1400.76013	618.83337	1017.34583	1516.47559	830.94104	687.97321	1264.20093	833.71368	483.73456	1299.66858	800.15057	290.67386	1308.75049	829.37756	73.46986	1349.4519	802.36035	47.00469	1406.99609	982.70709	40.27466	1315.83911	710.98224	667.86823	1657.13049	683.89026	465.77197	1653.21851	543.88074	342.32498	1653.47253	419.57565	195.55453	1620.42896	370.49689	176.02408	1557.72192	483.14807	42.48423	1632.51025	674.43451	1791.93457	1472.2124	2845.2373	1034.12915	-3360.42993	NaN	NaN	NaN
220	2.19	795.58435	1743.89282	1382.91394	797.05145	1729.9303	1526.22339	680.04681	1647.32178	1376.01978	668.98761	1629.59497	1517.78662	638.90332	1517.75269	1458.71228	593.2464	1239.24451	1465.64404	779.41016	1451.70471	1437.73462	837.92786	1282.44958	1448.58472	589.55267	1344.49683	1528.6051	696.75958	1489.38647	1273.42249	666.73065	1290.22083	1193.55774	650.03241	1151.78015	1185.09082	641.08881	1022.79108	1163.82764	687.78064	889.91547	1172.8761	635.75812	899.87244	1152.24487	644.99963	834.01392	1141.83179	734.81104	1488.0083	1638.6886	734.17224	1292.03601	1721.25269	770.8158	1149.01331	1733.76147	823.40363	1040.43762	1747.37244	893.78406	926.22443	1718.75574	852.58862	913.60583	1756.35803	901.5329	859.30994	1752.46851	844.79395	1002.42572	1319.17139	841.61169	968.11328	1571.84473	631.65955	1023.69763	1397.60596	626.28168	1018.26721	1513.37695	836.22528	688.01935	1262.06213	836.42743	483.91574	1298.00793	801.52026	290.72418	1307.20361	829.42407	73.49995	1349.36572	802.37537	46.78496	1406.88635	982.75348	40.24393	1315.84839	723.07306	666.99451	1655.29443	700.78064	465.69794	1653.2876	559.76593	344.55606	1653.95374	432.11008	201.08746	1620.40527	382.08447	183.89891	1558.09534	490.16525	46.18602	1631.11877	682.66931	1793.1134	1469.65039	2845.17969	1034.26538	-3360.25757	NaN	NaN	NaN
221	2.2	803.5614	1744.69202	1380.37598	804.95477	1730.68201	1523.78198	687.82715	1648.56311	1373.44556	676.62885	1630.76575	1515.19641	646.46753	1518.55566	1455.9585	600.96588	1240.33569	1462.75769	787.01489	1452.73389	1435.26855	844.43488	1283.26575	1445.52588	595.93597	1345.47339	1525.88379	704.29211	1490.32361	1270.87463	675.61914	1290.90588	1190.79761	660.18933	1152.2782	1182.1012	653.3479	1022.86017	1161.47205	702.1712	890.6781	1171.26355	650.33044	899.92651	1150.06848	660.94379	834.24054	1139.85034	741.74146	1488.79785	1635.90112	740.74298	1292.82654	1718.89099	776.49237	1149.63733	1731.02759	828.09204	1040.73816	1745.21655	897.6889	925.85754	1717.52478	856.05157	913.65222	1754.76392	904.14374	858.28375	1750.86792	852.24377	1002.50153	1316.21887	848.40973	968.74579	1568.66724	639.23798	1024.82666	1394.33386	633.44684	1019.28101	1510.15747	840.94366	687.81781	1259.93774	838.98242	483.85144	1296.37244	803.26245	290.95834	1305.91223	829.73517	73.34506	1349.57361	802.21497	46.9376	1406.9126	982.68256	40.0855	1315.75879	735.42548	666.92468	1653.92334	717.61078	465.72562	1653.01453	575.7547	346.93777	1654.11255	445.21487	206.3802	1619.67322	394.89404	191.01166	1557.48792	499.73447	50.77078	1631.54211	690.90765	1794.37048	1467.36353	2845.87451	1034.24768	-3357.18945	NaN	NaN	NaN
222	2.21	811.69031	1745.58716	1378.14099	812.80621	1731.43921	1521.41577	695.51764	1649.61255	1370.75659	684.39343	1631.93066	1512.93823	653.95374	1519.44751	1453.23352	608.45837	1241.05444	1459.49817	794.57318	1453.67737	1432.82764	853.1579	1284.55554	1443.62024	603.47919	1346.42444	1523.08984	711.98145	1491.10852	1268.28735	684.2746	1291.49841	1187.87537	670.0929	1152.58655	1178.98047	665.95239	1022.90875	1158.80615	716.92603	891.70148	1169.61047	665.12	899.75891	1147.73657	677.17444	834.651	1137.61926	748.8316	1489.771	1633.83801	747.04248	1293.39319	1716.24097	782.1308	1150.20996	1728.45508	832.68085	1040.9895	1743.32422	901.58972	925.33649	1716.26343	859.51489	913.68701	1753.26416	906.87933	857.61542	1749.62073	859.62793	1002.18744	1313.5542	855.4848	969.57977	1566.4801	646.52014	1026.06421	1390.948	640.3233	1020.3302	1506.78357	844.95465	687.61877	1257.99426	841.57855	483.6839	1294.93201	804.83356	290.91113	1304.82239	829.33942	73.38231	1349.18713	802.11285	46.92915	1406.86548	982.66016	40.01204	1315.79517	747.6452	667.18329	1652.42285	734.49854	466.11481	1652.36157	591.52924	349.28311	1653.26135	459.13498	211.46613	1618.40735	408.60904	195.9053	1555.4115	511.48315	55.93011	1632.94568	699.01013	1795.42297	1464.90381	2845.9248	1034.20569	-3357.48828	NaN	NaN	NaN
